# Blender v2.92.0 OBJ File: 'desk.blend'
# www.blender.org
mtllib floor-A.mtl
o Plane.004_Plane.006
v -3.423285 0.114206 -7.067002
v -3.327511 0.075757 -7.067002
v -3.327511 0.114206 -7.039025
v -3.410490 0.095007 -7.067002
v -3.410490 0.114206 -7.053032
v -3.398061 0.095819 -7.053624
v -3.327511 0.080893 -7.053032
v -3.375335 0.080893 -7.067002
v -3.373311 0.085883 -7.053624
v -3.375335 0.114206 -7.042763
v -3.327511 0.095007 -7.042763
v -3.373311 0.095819 -7.046393
v 3.327511 0.114206 -7.039025
v 3.327511 0.075757 -7.067002
v 3.423285 0.114206 -7.067002
v 3.327511 0.095007 -7.042763
v 3.375335 0.114206 -7.042763
v 3.373311 0.095819 -7.046393
v 3.375335 0.080893 -7.067002
v 3.327511 0.080893 -7.053032
v 3.373311 0.085883 -7.053624
v 3.410490 0.114206 -7.053032
v 3.410490 0.095007 -7.067002
v 3.398061 0.095819 -7.053624
v -3.423285 0.114206 -9.011048
v -3.327511 0.114206 -9.039025
v -3.327511 0.075757 -9.011048
v -3.410490 0.114206 -9.025019
v -3.410490 0.095007 -9.011048
v -3.398061 0.095819 -9.024427
v -3.327511 0.095007 -9.035288
v -3.375335 0.114206 -9.035288
v -3.373311 0.095819 -9.031657
v -3.375335 0.080893 -9.011048
v -3.327511 0.080893 -9.025019
v -3.373311 0.085883 -9.024427
v 3.423285 0.114206 -9.011048
v 3.327511 0.075757 -9.011048
v 3.327511 0.114206 -9.039025
v 3.410490 0.095007 -9.011048
v 3.410490 0.114206 -9.025019
v 3.398061 0.095819 -9.024427
v 3.327511 0.080893 -9.025019
v 3.375335 0.080893 -9.011048
v 3.373311 0.085883 -9.024427
v 3.375335 0.114206 -9.035288
v 3.327511 0.095007 -9.035288
v 3.373311 0.095819 -9.031657
v -3.423285 0.307475 -9.011048
v -3.327511 0.345924 -9.011048
v -3.327511 0.307475 -9.039025
v -3.410490 0.326674 -9.011048
v -3.410490 0.307475 -9.025019
v -3.398061 0.325862 -9.024427
v -3.327511 0.340787 -9.025019
v -3.375335 0.340787 -9.011048
v -3.373311 0.335798 -9.024427
v -3.375335 0.307475 -9.035288
v -3.327511 0.326674 -9.035288
v -3.373311 0.325862 -9.031657
v -3.423285 0.307475 -7.067002
v -3.327511 0.307475 -7.039025
v -3.327511 0.345924 -7.067002
v -3.410490 0.307475 -7.053032
v -3.410490 0.326674 -7.067002
v -3.398061 0.325862 -7.053624
v -3.327511 0.326674 -7.042763
v -3.375335 0.307475 -7.042763
v -3.373311 0.325862 -7.046393
v -3.375335 0.340787 -7.067002
v -3.327511 0.340787 -7.053032
v -3.373311 0.335798 -7.053624
v 3.327511 0.307475 -7.039025
v 3.423285 0.307475 -7.067002
v 3.327511 0.345924 -7.067002
v 3.375335 0.307475 -7.042763
v 3.327511 0.326674 -7.042763
v 3.373311 0.325862 -7.046393
v 3.410490 0.326674 -7.067002
v 3.410490 0.307475 -7.053032
v 3.398061 0.325862 -7.053624
v 3.327511 0.340787 -7.053032
v 3.375335 0.340787 -7.067002
v 3.373311 0.335798 -7.053624
v 3.423285 0.307475 -9.011048
v 3.327511 0.307475 -9.039025
v 3.327511 0.345924 -9.011048
v 3.410490 0.307475 -9.025019
v 3.410490 0.326674 -9.011048
v 3.398061 0.325862 -9.024427
v 3.327511 0.326674 -9.035288
v 3.375335 0.307475 -9.035288
v 3.373311 0.325862 -9.031657
v 3.375335 0.340787 -9.011048
v 3.327511 0.340787 -9.025019
v 3.373311 0.335798 -9.024427
vt 0.355797 0.904827
vt 0.009954 0.904827
vt 0.009954 0.869446
vt 0.355797 0.869446
vt 0.008743 0.958521
vt 0.477850 0.958521
vt 0.477850 0.993902
vt 0.008743 0.993902
vt 0.988880 0.401968
vt 0.988880 0.794157
vt 0.007605 0.794157
vt 0.007605 0.401968
vt 0.007605 0.000000
vt 0.988880 0.000000
vt 0.988880 0.392188
vt 0.007605 0.392188
vt 0.345842 0.860747
vt 0.000000 0.860747
vt 0.000000 0.825366
vt 0.345842 0.825366
vt 0.041479 0.807010
vt 0.044994 0.807276
vt 0.044845 0.810763
vt 0.041479 0.810647
vt 0.047578 0.808007
vt 0.046664 0.811278
vt 0.988880 0.399150
vt 0.993078 0.399269
vt 0.993263 0.401968
vt 0.988880 0.397078
vt 0.993078 0.397811
vt 0.041479 0.815753
vt 0.041479 0.813856
vt 0.044845 0.813022
vt 0.044994 0.814851
vt 0.009289 0.908342
vt 0.006263 0.908193
vt 0.006804 0.904827
vt 0.007605 0.397078
vt 0.007605 0.399150
vt 0.003408 0.399269
vt 0.003408 0.397811
vt 0.003222 0.401968
vt 0.000000 0.401968
vt 0.001139 0.399269
vt 0.000000 0.904827
vt 0.003150 0.904827
vt 0.003691 0.908193
vt 0.000665 0.908342
vt 0.004977 0.910012
vt 0.469373 0.948908
vt 0.472478 0.948908
vt 0.472077 0.952274
vt 0.469107 0.952422
vt 0.474225 0.948908
vt 0.473307 0.952274
vt 0.477584 0.955006
vt 0.480554 0.955155
vt 0.480955 0.958521
vt 0.988880 0.799047
vt 0.988880 0.796975
vt 0.993078 0.796856
vt 0.993078 0.798314
vt 0.993263 0.794157
vt 0.996485 0.794157
vt 0.995346 0.796856
vt 0.000000 0.958521
vt 0.000902 0.955006
vt 0.002730 0.955155
vt 0.001896 0.958521
vt 0.000000 0.794157
vt 0.003222 0.794157
vt 0.003408 0.796856
vt 0.001139 0.796856
vt 0.007605 0.796975
vt 0.007746 0.952422
vt 0.008477 0.955006
vt 0.004990 0.955155
vt 0.004475 0.953336
vt 0.005106 0.958521
vt 0.469373 0.913527
vt 0.469107 0.910012
vt 0.472077 0.910161
vt 0.472478 0.913527
vt 0.000000 0.392188
vt 0.003222 0.392188
vt 0.003408 0.394887
vt 0.001139 0.394887
vt 0.007605 0.395007
vt 0.007605 0.397078
vt 0.003408 0.396346
vt 0.480955 0.993902
vt 0.480554 0.997268
vt 0.477584 0.997416
vt 0.474225 0.913527
vt 0.473307 0.910161
vt 0.006098 0.807010
vt 0.006098 0.810647
vt 0.002732 0.810763
vt 0.002584 0.807276
vt 0.006098 0.813856
vt 0.002732 0.813022
vt 0.006098 0.815753
vt 0.002584 0.814851
vt 0.003515 0.815753
vt 0.003515 0.818336
vt 0.000149 0.818485
vt 0.000149 0.816666
vt 0.003515 0.821851
vt 0.000000 0.821851
vt 0.000000 0.808007
vt 0.000913 0.811278
vt 0.006804 0.869446
vt 0.006263 0.866080
vt 0.009289 0.865932
vt 0.003150 0.869446
vt 0.003691 0.866080
vt 0.000000 0.869446
vt 0.000665 0.865932
vt 0.498708 0.821851
vt 0.496125 0.821851
vt 0.495976 0.818485
vt 0.497795 0.818485
vt 0.492610 0.821851
vt 0.492610 0.818336
vt 0.492610 0.815753
vt 0.495976 0.816666
vt 0.004977 0.864262
vt 0.000000 0.993902
vt 0.001896 0.993902
vt 0.002730 0.997268
vt 0.000902 0.997416
vt 0.005106 0.993902
vt 0.004990 0.997268
vt 0.008477 0.997416
vt 0.007746 1.000000
vt 0.004475 0.999086
vt 0.993263 0.392188
vt 0.993078 0.394887
vt 0.988880 0.395007
vt 0.996485 0.392188
vt 0.995346 0.394887
vt 0.996485 0.401968
vt 0.000000 0.952422
vt 0.000266 0.948908
vt 0.355132 0.908342
vt 0.346507 0.864262
vt 0.000665 0.864262
vt 0.007605 0.799047
vt 0.000266 0.913527
vt 0.000000 0.910012
vt 0.000000 0.000000
vt 0.003222 0.000000
vt 0.355132 0.865932
vt 0.000665 0.821851
vt 0.346507 0.821851
vt 0.996485 0.000000
vt 0.993263 0.000000
vt 0.988880 0.397078
vn 0.0000 0.0000 1.0000
vn 0.0000 0.0000 -1.0000
vn 0.0000 -1.0000 0.0000
vn 0.0000 1.0000 0.0000
vn 1.0000 0.0000 0.0000
vn -0.6511 -0.4466 0.6137
vn -0.3456 -0.8609 0.3734
vn -0.1028 -0.9303 0.3521
vn -0.0744 -0.5868 0.8063
vn -0.0786 -0.1959 0.9775
vn -0.2738 -0.2152 0.9374
vn -0.2299 -0.5726 0.7869
vn 0.0786 -0.1959 0.9775
vn 0.0744 -0.5868 0.8063
vn 0.1028 -0.9303 0.3521
vn 0.3456 -0.8609 0.3734
vn 0.6511 -0.4466 0.6137
vn 0.2738 -0.2152 0.9374
vn 0.2299 -0.5726 0.7869
vn -0.6511 -0.4466 -0.6137
vn -0.2738 -0.2152 -0.9374
vn -0.0786 -0.1958 -0.9775
vn -0.0744 -0.5867 -0.8064
vn -0.1028 -0.9303 -0.3521
vn -0.3456 -0.8609 -0.3734
vn -0.2298 -0.5726 -0.7869
vn 0.6511 -0.4466 -0.6137
vn 0.3456 -0.8609 -0.3734
vn 0.1028 -0.9303 -0.3521
vn 0.0743 -0.5867 -0.8064
vn 0.0787 -0.1958 -0.9775
vn 0.2738 -0.2152 -0.9374
vn 0.2298 -0.5726 -0.7869
vn -0.6511 0.4466 -0.6137
vn -0.3456 0.8609 -0.3734
vn -0.1028 0.9303 -0.3521
vn -0.0743 0.5867 -0.8064
vn -0.0786 0.1958 -0.9775
vn -0.2738 0.2152 -0.9374
vn -0.2298 0.5726 -0.7869
vn -0.6511 0.4466 0.6137
vn -0.2738 0.2152 0.9374
vn -0.0786 0.1959 0.9775
vn -0.0743 0.5868 0.8063
vn -0.1028 0.9303 0.3521
vn -0.3456 0.8609 0.3734
vn -0.2299 0.5726 0.7869
vn 0.0786 0.1959 0.9775
vn 0.2738 0.2152 0.9374
vn 0.6511 0.4466 0.6137
vn 0.3456 0.8609 0.3734
vn 0.1028 0.9303 0.3521
vn 0.0743 0.5868 0.8063
vn 0.2299 0.5726 0.7869
vn 0.6511 0.4466 -0.6137
vn 0.2738 0.2152 -0.9374
vn 0.0786 0.1958 -0.9775
vn 0.0744 0.5867 -0.8064
vn 0.1028 0.9303 -0.3521
vn 0.3456 0.8609 -0.3734
vn 0.2298 0.5726 -0.7869
vn -0.1068 -0.9943 0.0000
vn -0.3726 -0.9280 0.0000
vn -0.8321 -0.5546 0.0000
vn 0.0000 -0.9386 0.3451
vn 0.0000 -0.5884 0.8086
vn 0.0000 -0.1911 0.9816
vn 0.1068 -0.9943 0.0000
vn 0.3726 -0.9280 0.0000
vn 0.8321 -0.5546 0.0000
vn 0.0000 -0.9386 -0.3451
vn 0.0000 -0.5884 -0.8086
vn 0.0000 -0.1911 -0.9816
vn -0.8321 0.5546 0.0000
vn -0.3726 0.9280 0.0000
vn -0.1068 0.9943 0.0000
vn 0.0000 0.1911 0.9816
vn 0.0000 0.5884 0.8086
vn 0.0000 0.9386 0.3451
vn 0.8321 0.5546 0.0000
vn 0.3726 0.9280 0.0000
vn 0.1068 0.9943 0.0000
vn -0.0000 0.1911 -0.9816
vn -0.0000 0.5884 -0.8086
vn 0.0000 0.9386 -0.3451
vn 0.0779 0.0000 -0.9970
vn 0.2804 0.0000 -0.9599
vn 0.7374 0.0000 -0.6754
vn 0.0779 0.0000 0.9970
vn 0.2804 0.0000 0.9599
vn 0.7374 0.0000 0.6754
vn -0.0779 0.0000 0.9970
vn -0.2804 0.0000 0.9599
vn -0.7374 0.0000 0.6754
vn -0.0779 0.0000 -0.9970
vn -0.2804 0.0000 -0.9599
vn -0.7374 0.0000 -0.6754
vn -1.0000 0.0000 0.0000
usemtl Material.008
s off
f 3/1/1 13/2/1 73/3/1 62/4/1
f 39/5/2 26/6/2 51/7/2 86/8/2
f 2/9/3 27/10/3 38/11/3 14/12/3
f 63/13/4 75/14/4 87/15/4 50/16/4
f 15/17/5 37/18/5 85/19/5 74/20/5
f 1/21/6 4/22/6 6/23/6 5/24/6
f 4/22/7 8/25/7 9/26/7 6/23/7
f 2/9/8 7/27/8 9/28/8 8/29/8
f 7/27/9 11/30/9 12/31/9 9/28/9
f 3/32/10 10/33/10 12/34/10 11/35/10
f 10/33/11 5/24/11 6/23/11 12/34/11
f 6/23/12 9/26/12 12/34/12
f 13/2/13 16/36/13 18/37/13 17/38/13
f 16/39/14 20/40/14 21/41/14 18/42/14
f 14/12/15 19/43/15 21/41/15 20/40/15
f 19/43/16 23/44/16 24/45/16 21/41/16
f 15/46/17 22/47/17 24/48/17 23/49/17
f 22/47/18 17/38/18 18/37/18 24/48/18
f 18/37/19 21/50/19 24/48/19
f 25/51/20 28/52/20 30/53/20 29/54/20
f 28/52/21 32/55/21 33/56/21 30/53/21
f 26/6/22 31/57/22 33/58/22 32/59/22
f 31/60/23 35/61/23 36/62/23 33/63/23
f 27/10/24 34/64/24 36/62/24 35/61/24
f 34/64/25 29/65/25 30/66/25 36/62/25
f 30/66/26 33/63/26 36/62/26
f 37/67/27 40/68/27 42/69/27 41/70/27
f 40/71/28 44/72/28 45/73/28 42/74/28
f 38/11/29 43/75/29 45/73/29 44/72/29
f 43/76/30 47/77/30 48/78/30 45/79/30
f 39/5/31 46/80/31 48/78/31 47/77/31
f 46/80/32 41/70/32 42/69/32 48/78/32
f 42/69/33 45/79/33 48/78/33
f 49/81/34 52/82/34 54/83/34 53/84/34
f 52/85/35 56/86/35 57/87/35 54/88/35
f 50/16/36 55/89/36 57/87/36 56/86/36
f 55/89/37 59/90/37 60/91/37 57/87/37
f 51/7/38 58/92/38 60/93/38 59/94/38
f 58/95/39 53/84/39 54/83/39 60/96/39
f 54/88/40 57/87/40 60/91/40
f 61/97/41 64/98/41 66/99/41 65/100/41
f 64/98/42 68/101/42 69/102/42 66/99/42
f 62/103/43 67/104/43 69/102/43 68/101/43
f 67/105/44 71/106/44 72/107/44 69/108/44
f 63/109/45 70/110/45 72/107/45 71/106/45
f 70/111/46 65/100/46 66/99/46 72/112/46
f 66/99/47 69/102/47 72/112/47
f 73/3/48 76/113/48 78/114/48 77/115/48
f 76/113/49 80/116/49 81/117/49 78/114/49
f 74/118/50 79/119/50 81/117/50 80/116/50
f 79/120/51 83/121/51 84/122/51 81/123/51
f 75/124/52 82/125/52 84/122/52 83/121/52
f 82/125/53 77/126/53 78/127/53 84/122/53
f 78/114/54 81/117/54 84/128/54
f 85/129/55 88/130/55 90/131/55 89/132/55
f 88/130/56 92/133/56 93/134/56 90/131/56
f 86/8/57 91/135/57 93/134/57 92/133/57
f 91/135/58 95/136/58 96/137/58 93/134/58
f 87/15/59 94/138/59 96/139/59 95/140/59
f 94/138/60 89/141/60 90/142/60 96/139/60
f 90/131/61 93/134/61 96/137/61
f 27/10/62 2/9/62 8/29/62 34/64/62
f 34/64/63 8/29/63 4/143/63 29/65/63
f 29/54/64 4/144/64 1/145/64 25/51/64
f 2/9/65 14/12/65 20/40/65 7/27/65
f 7/27/66 20/40/66 16/39/66 11/30/66
f 11/146/67 16/36/67 13/2/67 3/1/67
f 14/12/68 38/11/68 44/72/68 19/43/68
f 19/43/69 44/72/69 40/71/69 23/44/69
f 23/147/70 40/148/70 37/18/70 15/17/70
f 38/11/71 27/10/71 35/61/71 43/75/71
f 43/75/72 35/61/72 31/60/72 47/149/72
f 47/77/73 31/57/73 26/6/73 39/5/73
f 49/81/74 61/150/74 65/151/74 52/82/74
f 52/85/75 65/152/75 70/153/75 56/86/75
f 56/86/76 70/153/76 63/13/76 50/16/76
f 62/4/77 73/3/77 77/115/77 67/154/77
f 67/105/78 77/126/78 82/125/78 71/106/78
f 71/106/79 82/125/79 75/124/79 63/109/79
f 74/20/80 85/19/80 89/155/80 79/156/80
f 79/157/81 89/141/81 94/138/81 83/158/81
f 83/158/82 94/138/82 87/15/82 75/14/82
f 86/8/83 51/7/83 59/94/83 91/135/83
f 91/159/84 59/90/84 55/89/84 95/140/84
f 95/140/85 55/89/85 50/16/85 87/15/85
f 39/5/86 86/8/86 92/133/86 46/80/86
f 46/80/87 92/133/87 88/130/87 41/70/87
f 41/70/88 88/130/88 85/129/88 37/67/88
f 73/3/89 13/2/89 17/38/89 76/113/89
f 76/113/90 17/38/90 22/47/90 80/116/90
f 80/116/91 22/47/91 15/46/91 74/118/91
f 3/32/92 62/103/92 68/101/92 10/33/92
f 10/33/93 68/101/93 64/98/93 5/24/93
f 5/24/94 64/98/94 61/97/94 1/21/94
f 51/7/95 26/6/95 32/59/95 58/92/95
f 58/95/96 32/55/96 28/52/96 53/84/96
f 53/84/97 28/52/97 25/51/97 49/81/97
f 25/51/98 1/145/98 61/150/98 49/81/98
