# Blender v2.92.0 OBJ File: 'desk.blend'
# www.blender.org
mtllib door2.0.mtl
o door.002_Plane.002
v -5.111203 0.079798 -7.901175
v -5.111204 0.079798 -9.594108
v -5.111203 3.146012 -7.901175
v -5.111203 3.146012 -9.594108
v -4.887690 3.097905 -7.947231
v -4.887690 0.127905 -7.947231
v -4.887690 0.127905 -9.548052
v -4.887690 3.097905 -9.548052
v -4.873710 3.097905 -7.947231
v -4.859177 3.120245 -7.925844
v -4.863434 3.104448 -7.940967
v -4.859177 0.105566 -7.925844
v -4.873710 0.127905 -7.947231
v -4.863434 0.121362 -7.940967
v -4.859177 0.105566 -9.569439
v -4.873710 0.127905 -9.548052
v -4.863434 0.121362 -9.554316
v -4.859177 3.120245 -9.569439
v -4.873710 3.097905 -9.548052
v -4.863434 3.104448 -9.554316
v -5.091837 3.146012 -7.901175
v -5.091837 0.079798 -7.901175
v -5.091837 0.079798 -9.594108
v -5.091837 3.146012 -9.594108
v -4.865986 0.079798 -7.901175
v -4.865986 3.146012 -9.594108
v -4.865986 3.146012 -7.901175
v -4.865986 0.079798 -9.594108
v -4.887690 0.127905 -9.537655
v -4.887690 3.097905 -9.537655
v -5.111204 0.079798 -9.583113
v -5.111203 3.146012 -9.583113
v -4.859177 0.105566 -9.558764
v -4.863434 0.121362 -9.543838
v -4.873710 0.127905 -9.537655
v -4.859177 3.120245 -9.558764
v -4.863434 3.104448 -9.543838
v -4.873710 3.097905 -9.537655
v -5.091837 0.079798 -9.583113
v -5.091837 3.146012 -9.583113
v -4.865986 0.079798 -9.583113
v -4.865986 3.146012 -9.583113
v -4.887690 3.097905 -7.961373
v -5.111203 3.146012 -7.916131
v -4.863434 0.121362 -7.955220
v -4.873710 0.127905 -7.961373
v -4.859177 3.120245 -7.940364
v -5.091837 0.079798 -7.916131
v -4.865986 0.079798 -7.916131
v -4.887690 0.127905 -7.961373
v -5.111203 0.079798 -7.916131
v -4.859177 0.105566 -7.940364
v -4.863434 3.104448 -7.955220
v -4.873710 3.097905 -7.961373
v -5.091837 3.146012 -7.916131
v -4.865986 3.146012 -7.916131
v -4.859177 3.139798 -7.907125
v -4.862701 3.146012 -7.901175
v -4.859649 3.142905 -7.904150
v -4.860939 3.145179 -7.901972
v -4.862701 0.079798 -7.901175
v -4.859177 0.086012 -7.907125
v -4.860939 0.080631 -7.901972
v -4.859649 0.082905 -7.904150
v -4.862701 0.079798 -9.594108
v -4.859177 0.086012 -9.588159
v -4.860940 0.080631 -9.593310
v -4.859650 0.082905 -9.591133
v -4.862701 3.146012 -9.594108
v -4.859177 3.139798 -9.588159
v -4.860939 3.145179 -9.593310
v -4.859649 3.142905 -9.591133
v -4.859177 0.086140 -9.577120
v -4.862701 0.079798 -9.583113
v -4.859650 0.082969 -9.580116
v -4.860940 0.080648 -9.582310
v -4.862701 3.146012 -9.583113
v -4.859177 3.139670 -9.577120
v -4.860939 3.145162 -9.582310
v -4.859649 3.142841 -9.580116
v -4.859177 3.139670 -7.922095
v -4.862701 3.146012 -7.916131
v -4.859649 3.142841 -7.919113
v -4.860939 3.145162 -7.916930
v -4.859177 0.086140 -7.922095
v -4.862701 0.079798 -7.916131
v -4.859649 0.082969 -7.919113
v -4.860939 0.080648 -7.916930
vt 0.646026 0.647813
vt 0.646026 0.651256
vt 0.116021 0.651228
vt 0.116021 0.647785
vt 0.013951 0.640148
vt 0.013973 0.133489
vt 0.017331 0.127772
vt 0.017308 0.645893
vt 0.020559 0.121214
vt 0.020560 0.125901
vt 0.019264 0.125901
vt 0.019276 0.121210
vt 0.020533 0.647780
vt 0.020533 0.651225
vt 0.019252 0.651227
vt 0.019254 0.647779
vt 0.760911 0.633579
vt 0.760911 0.636834
vt 0.755467 0.636834
vt 0.755467 0.633579
vt 0.741517 0.651267
vt 0.741515 0.647818
vt 0.742812 0.647816
vt 0.742803 0.651273
vt 0.637706 0.771323
vt 0.124347 0.771324
vt 0.124347 0.765880
vt 0.637706 0.765880
vt 0.001180 0.140063
vt 0.001181 0.135636
vt 0.006624 0.135637
vt 0.006624 0.140064
vt 0.748100 0.128978
vt 0.748100 0.133522
vt 0.744744 0.127804
vt 0.744724 0.123118
vt 0.641567 0.756408
vt 0.120483 0.756400
vt 0.117104 0.750540
vt 0.644947 0.750548
vt 0.124369 0.001156
vt 0.637728 0.001155
vt 0.637728 0.006599
vt 0.124369 0.006599
vt 0.013950 0.643488
vt 0.017330 0.649353
vt 0.641591 0.016079
vt 0.120507 0.016072
vt 0.123238 0.011055
vt 0.638860 0.011061
vt 0.010759 0.638757
vt 0.010760 0.635479
vt 0.006602 0.636797
vt 0.006602 0.633543
vt 0.638837 0.761424
vt 0.123214 0.761418
vt 0.751294 0.133711
vt 0.751295 0.138173
vt 0.755453 0.135672
vt 0.755453 0.140099
vt 0.741541 0.125938
vt 0.741541 0.121256
vt 0.742820 0.121256
vt 0.742820 0.125938
vt 0.108480 0.651227
vt 0.108480 0.647785
vt 0.646053 0.125933
vt 0.646053 0.121251
vt 0.653595 0.121251
vt 0.653594 0.125933
vt 0.646025 0.658797
vt 0.116021 0.658769
vt 0.116049 0.121224
vt 0.116049 0.113683
vt 0.646054 0.113710
vt 0.646021 0.746743
vt 0.116016 0.746716
vt 0.116054 0.025737
vt 0.646058 0.025763
vt 0.653568 0.651256
vt 0.653568 0.647814
vt 0.108507 0.125905
vt 0.116049 0.125905
vt 0.751310 0.638794
vt 0.751310 0.635515
vt 0.748120 0.643526
vt 0.748118 0.640185
vt 0.010781 0.138137
vt 0.646021 0.748022
vt 0.116016 0.747983
vt 0.744735 0.649397
vt 0.744760 0.645932
vt 0.001158 0.636798
vt 0.001158 0.633543
vt 0.760897 0.140099
vt 0.116054 0.024457
vt 0.646058 0.024495
vt 0.760897 0.135671
vt 0.013972 0.128945
vt 0.017356 0.123079
vt 0.010781 0.133678
vt 0.108507 0.121223
vt 0.116198 0.023727
vt 0.645914 0.023764
vt 0.116591 0.022880
vt 0.645507 0.022887
vt 0.117128 0.021931
vt 0.644971 0.021939
vt 0.018548 0.650979
vt 0.018542 0.647523
vt 0.017906 0.650296
vt 0.017881 0.646820
vt 0.645877 0.748752
vt 0.116160 0.748715
vt 0.645484 0.749599
vt 0.116567 0.749592
vt 0.743520 0.121505
vt 0.743522 0.126188
vt 0.744157 0.122187
vt 0.744165 0.126871
vt 0.018564 0.126150
vt 0.017904 0.126850
vt 0.743524 0.647562
vt 0.743510 0.651025
vt 0.744186 0.646858
vt 0.744157 0.650341
vt 0.018572 0.121459
vt 0.017931 0.122141
vn -1.0000 0.0000 0.0000
vn 1.0000 0.0000 0.0000
vn 0.0000 -1.0000 0.0000
vn 0.0000 1.0000 0.0000
vn 0.0000 0.0000 1.0000
vn 0.0000 0.0000 -1.0000
vn 0.9626 0.0000 -0.2709
vn 0.5205 -0.0000 -0.8539
vn 0.9656 0.2602 0.0000
vn 0.5371 0.8435 0.0000
vn 0.9626 0.0000 0.2709
vn 0.5205 0.0000 0.8539
vn 0.9656 -0.2602 0.0000
vn 0.5371 -0.8435 0.0000
vn 0.4119 0.0000 0.9112
vn 0.8604 0.0000 0.5095
vn 0.9876 0.0000 0.1568
vn 0.4305 -0.9026 0.0007
vn 0.8712 -0.4909 0.0018
vn 0.9887 -0.1500 0.0013
vn 0.4124 0.0000 -0.9110
vn 0.8603 0.0000 -0.5098
vn 0.9876 0.0000 -0.1568
vn 0.4306 0.9025 -0.0005
vn 0.8716 0.4903 -0.0013
vn 0.9887 0.1497 -0.0010
vn 0.4343 -0.9008 -0.0000
vn 0.8742 -0.4856 -0.0000
vn 0.9891 -0.1475 -0.0000
vn 0.4306 0.9025 0.0007
vn 0.8713 0.4908 0.0018
vn 0.9887 0.1499 0.0013
vn 0.4344 0.9007 0.0000
vn 0.8742 0.4856 0.0000
vn 0.9891 0.1475 0.0000
vn 0.4306 -0.9026 -0.0005
vn 0.8716 -0.4903 -0.0013
vn 0.9887 -0.1497 -0.0010
usemtl Material.004
s off
f 32/1/1 4/2/1 2/3/1 31/4/1
f 33/5/2 52/6/2 85/7/2 73/8/2
f 25/9/3 49/10/3 86/11/3 61/12/3
f 41/13/3 28/14/3 65/15/3 74/16/3
f 30/17/3 8/18/3 19/19/3 38/20/3
f 26/21/4 42/22/4 77/23/4 69/24/4
f 8/25/5 7/26/5 16/27/5 19/28/5
f 50/29/4 6/30/4 13/31/4 46/32/4
f 10/33/2 47/34/2 81/35/2 57/36/2
f 18/37/2 15/38/2 66/39/2 70/40/2
f 6/41/6 5/42/6 9/43/6 13/44/6
f 15/45/2 33/5/2 73/8/2 66/46/2
f 10/47/7 12/48/7 14/49/7 11/50/7
f 11/50/8 14/49/8 13/44/8 9/43/8
f 33/5/9 15/45/9 17/51/9 34/52/9
f 34/52/10 17/51/10 16/53/10 35/54/10
f 15/38/11 18/37/11 20/55/11 17/56/11
f 17/56/12 20/55/12 19/28/12 16/27/12
f 47/34/13 10/33/13 11/57/13 53/58/13
f 53/58/14 11/57/14 9/59/14 54/60/14
f 56/61/4 27/62/4 58/63/4 82/64/4
f 31/4/3 2/3/3 23/65/3 39/66/3
f 44/67/4 3/68/4 21/69/4 55/70/4
f 2/3/6 4/2/6 24/71/6 23/72/6
f 3/68/5 1/73/5 22/74/5 21/75/5
f 39/66/3 23/65/3 28/14/3 41/13/3
f 55/70/4 21/69/4 27/62/4 56/61/4
f 23/72/6 24/71/6 26/76/6 28/77/6
f 21/75/5 22/74/5 25/78/5 27/79/5
f 24/80/4 40/81/4 42/22/4 26/21/4
f 48/82/3 39/66/3 41/13/3 49/10/3
f 4/2/4 32/1/4 40/81/4 24/80/4
f 51/83/3 31/4/3 39/66/3 48/82/3
f 20/84/14 37/85/14 38/20/14 19/19/14
f 18/86/13 36/87/13 37/85/13 20/84/13
f 45/88/10 34/52/10 35/54/10 46/32/10
f 52/6/9 33/5/9 34/52/9 45/88/9
f 28/77/6 26/76/6 69/89/6 65/90/6
f 42/22/4 56/61/4 82/64/4 77/23/4
f 36/87/2 18/86/2 70/91/2 78/92/2
f 7/93/4 29/94/4 35/54/4 16/53/4
f 43/95/3 30/17/3 38/20/3 54/60/3
f 3/68/1 44/67/1 51/83/1 1/73/1
f 27/79/5 25/78/5 61/96/5 58/97/5
f 5/98/3 43/95/3 54/60/3 9/59/3
f 52/6/2 12/99/2 62/100/2 85/7/2
f 12/99/9 52/6/9 45/88/9 14/101/9
f 14/101/10 45/88/10 46/32/10 13/31/10
f 1/73/3 51/83/3 48/82/3 22/102/3
f 22/102/3 48/82/3 49/10/3 25/9/3
f 40/81/4 55/70/4 56/61/4 42/22/4
f 32/1/4 44/67/4 55/70/4 40/81/4
f 37/85/14 53/58/14 54/60/14 38/20/14
f 36/87/13 47/34/13 53/58/13 37/85/13
f 49/10/3 41/13/3 74/16/3 86/11/3
f 47/34/2 36/87/2 78/92/2 81/35/2
f 29/94/4 50/29/4 46/32/4 35/54/4
f 58/97/15 61/96/15 63/103/15 60/104/15
f 60/104/16 63/103/16 64/105/16 59/106/16
f 59/106/17 64/105/17 62/107/17 57/108/17
f 74/16/18 65/15/18 67/109/18 76/110/18
f 76/110/19 67/109/19 68/111/19 75/112/19
f 75/112/20 68/111/20 66/46/20 73/8/20
f 65/90/21 69/89/21 71/113/21 67/114/21
f 67/114/22 71/113/22 72/115/22 68/116/22
f 68/116/23 72/115/23 70/40/23 66/39/23
f 82/64/24 58/63/24 60/117/24 84/118/24
f 84/118/25 60/117/25 59/119/25 83/120/25
f 83/120/26 59/119/26 57/36/26 81/35/26
f 86/11/27 74/16/27 76/110/27 88/121/27
f 88/121/28 76/110/28 75/112/28 87/122/28
f 87/122/29 75/112/29 73/8/29 85/7/29
f 69/24/30 77/23/30 79/123/30 71/124/30
f 71/124/31 79/123/31 80/125/31 72/126/31
f 72/126/32 80/125/32 78/92/32 70/91/32
f 77/23/33 82/64/33 84/118/33 79/123/33
f 79/123/34 84/118/34 83/120/34 80/125/34
f 80/125/35 83/120/35 81/35/35 78/92/35
f 61/12/36 86/11/36 88/121/36 63/127/36
f 63/127/37 88/121/37 87/122/37 64/128/37
f 64/128/38 87/122/38 85/7/38 62/100/38
f 12/48/2 10/47/2 57/108/2 62/107/2
o door.003_Plane.003
v -4.884282 2.996384 -8.022382
v -4.884294 0.219098 -8.022382
v -4.883345 0.205816 -9.484383
v -4.884294 2.996384 -9.474293
v -4.930224 3.092788 -7.947865
v -4.930224 0.122789 -7.947865
v -4.917837 0.128640 -9.545134
v -4.930224 3.092788 -9.548686
v -4.886379 3.092788 -7.947865
v -4.864990 3.044602 -7.974471
v -4.875685 3.086333 -7.951430
v -4.867855 3.068695 -7.961168
v -4.864990 0.170976 -7.974471
v -4.886380 0.122789 -7.947865
v -4.867856 0.146883 -7.961168
v -4.875685 0.129245 -7.951430
v -4.868832 0.164838 -9.525148
v -4.884901 0.128640 -9.545134
v -4.870985 0.146739 -9.535141
v -4.876866 0.133489 -9.542457
v -4.864990 3.044602 -9.522080
v -4.886379 3.092788 -9.548686
v -4.867856 3.068695 -9.535383
v -4.875685 3.086333 -9.545121
v -4.881135 1.677718 -9.320490
v -4.881135 1.676520 -9.308331
v -4.881135 1.672973 -9.296638
v -4.881135 1.667213 -9.285862
v -4.881135 1.659462 -9.276418
v -4.881135 1.650017 -9.268666
v -4.881135 1.639242 -9.262907
v -4.881135 1.627550 -9.259359
v -4.881135 1.615390 -9.258162
v -4.881135 1.603230 -9.259359
v -4.881135 1.591538 -9.262907
v -4.881135 1.580763 -9.268666
v -4.881135 1.571318 -9.276418
v -4.881135 1.563566 -9.285862
v -4.881135 1.557807 -9.296638
v -4.881135 1.554260 -9.308331
v -4.881135 1.553062 -9.320490
v -4.881135 1.554260 -9.332649
v -4.881135 1.557807 -9.344341
v -4.881135 1.563566 -9.355117
v -4.881135 1.571318 -9.364562
v -4.881135 1.580763 -9.372313
v -4.881135 1.591538 -9.378073
v -4.881135 1.603230 -9.381619
v -4.881135 1.615390 -9.382817
v -4.881135 1.627550 -9.381619
v -4.881135 1.639242 -9.378073
v -4.881135 1.650017 -9.372313
v -4.881135 1.659462 -9.364562
v -4.881135 1.667214 -9.355117
v -4.881135 1.672973 -9.344341
v -4.881135 1.676520 -9.332649
v -4.884294 3.015112 -8.003694
v -4.884294 0.200466 -8.003694
v -4.883333 0.186991 -9.503196
v -4.884294 3.015112 -9.492858
v -4.865942 1.499954 -9.348599
v -4.865933 1.494096 -9.359560
v -4.865924 1.486212 -9.369166
v -4.865915 1.476606 -9.377049
v -4.865908 1.465646 -9.382908
v -4.865902 1.453753 -9.386516
v -4.865897 1.441386 -9.387733
v -4.865893 1.429018 -9.386516
v -4.865891 1.417126 -9.382908
v -4.865892 1.406166 -9.377049
v -4.865893 1.396560 -9.369166
v -4.865897 1.388676 -9.359560
v -4.865902 1.382818 -9.348599
v -4.865909 1.379210 -9.336707
v -4.865916 1.377992 -9.324340
v -4.865925 1.379210 -9.311973
v -4.865933 1.382818 -9.300080
v -4.865942 1.388676 -9.289121
v -4.865952 1.396560 -9.279514
v -4.865960 1.406166 -9.271630
v -4.865967 1.417126 -9.265772
v -4.865973 1.429018 -9.262164
v -4.865979 1.441386 -9.260946
v -4.865982 1.453753 -9.262164
v -4.865983 1.465646 -9.265772
v -4.865983 1.476606 -9.271630
v -4.865982 1.486212 -9.279514
v -4.865978 1.494096 -9.289121
v -4.865973 1.499954 -9.300080
v -4.865967 1.503561 -9.311973
v -4.865959 1.504780 -9.324340
v -4.865951 1.503561 -9.336707
v -4.922314 3.092788 -7.947865
v -4.922314 0.122789 -7.947865
v -4.922314 3.092788 -9.548686
v -4.911895 0.128640 -9.545134
v -4.893893 3.092788 -7.947865
v -4.893893 3.092788 -9.548686
v -4.893894 0.122789 -7.947865
v -4.890545 0.128640 -9.545134
vt 0.869430 0.032241
vt 0.879867 0.042991
vt 0.886003 0.054403
vt 0.887601 0.066039
vt 0.884601 0.077451
vt 0.877118 0.088201
vt 0.865439 0.097876
vt 0.850014 0.106104
vt 0.831433 0.112568
vt 0.810414 0.117021
vt 0.787761 0.119291
vt 0.764348 0.119291
vt 0.741072 0.117022
vt 0.718829 0.112570
vt 0.698473 0.106105
vt 0.680787 0.097878
vt 0.666449 0.088203
vt 0.656012 0.077454
vt 0.649876 0.066042
vt 0.648278 0.054406
vt 0.651278 0.042993
vt 0.658761 0.032244
vt 0.670440 0.022569
vt 0.685866 0.014341
vt 0.704446 0.007877
vt 0.725466 0.003423
vt 0.748118 0.001153
vt 0.771532 0.001153
vt 0.794808 0.003423
vt 0.817051 0.007875
vt 0.837407 0.014339
vt 0.855093 0.022567
vt 0.997170 0.983782
vt 0.998839 0.651188
vt 0.648332 0.653483
vt 0.648332 0.983782
vt 0.165839 0.515944
vt 0.510600 0.516065
vt 0.510733 0.179501
vt 0.166636 0.180113
vt 0.553156 0.190882
vt 0.547159 0.184840
vt 0.547125 0.504883
vt 0.553125 0.498840
vt 0.123506 0.503800
vt 0.129428 0.509861
vt 0.131559 0.190671
vt 0.126029 0.196153
vt 0.172844 0.138537
vt 0.170355 0.144426
vt 0.499021 0.142382
vt 0.495604 0.134586
vt 0.510644 0.522082
vt 0.165884 0.521962
vt 0.159979 0.515866
vt 0.160775 0.180039
vt 0.166577 0.174108
vt 0.510666 0.173496
vt 0.516607 0.179459
vt 0.516474 0.516022
vt 0.505275 0.553198
vt 0.507984 0.547426
vt 0.171678 0.547359
vt 0.177299 0.553181
vt 0.509977 0.541521
vt 0.167478 0.541415
vt 0.510687 0.535531
vt 0.165926 0.535411
vt 0.135075 0.512707
vt 0.137322 0.185266
vt 0.140847 0.514830
vt 0.143181 0.181264
vt 0.146689 0.515664
vt 0.149055 0.179853
vt 0.168363 0.150211
vt 0.504674 0.148169
vt 0.166917 0.156116
vt 0.508909 0.154077
vt 0.166434 0.162098
vt 0.510506 0.160060
vt 0.541526 0.182127
vt 0.541443 0.510368
vt 0.535762 0.180129
vt 0.535642 0.514467
vt 0.529914 0.179419
vt 0.529780 0.515982
vt 0.501909 0.561016
vt 0.180665 0.560999
vt 0.882157 0.138311
vt 0.882157 0.115291
vt 0.884389 0.092407
vt 0.888766 0.070537
vt 0.895122 0.050524
vt 0.903211 0.033135
vt 0.912723 0.019039
vt 0.923292 0.008777
vt 0.934513 0.002746
vt 0.945953 0.001174
vt 0.957173 0.004124
vt 0.967742 0.011481
vt 0.977254 0.022964
vt 0.985343 0.038131
vt 0.991699 0.056398
vt 0.996077 0.077064
vt 0.998309 0.099336
vt 0.998309 0.122356
vt 0.996077 0.145240
vt 0.991699 0.167109
vt 0.985343 0.187122
vt 0.977254 0.204511
vt 0.967742 0.218608
vt 0.957173 0.228869
vt 0.945953 0.234901
vt 0.934513 0.236472
vt 0.923293 0.233523
vt 0.912724 0.226165
vt 0.903212 0.214682
vt 0.895122 0.199516
vt 0.888767 0.181249
vt 0.884389 0.160582
vt 0.499745 0.566585
vt 0.183700 0.566585
vt 0.118335 0.500048
vt 0.120648 0.205819
vt 0.174975 0.132915
vt 0.492497 0.129012
vt 0.558365 0.194607
vt 0.558433 0.489249
vt 0.524040 0.179462
vt 0.523906 0.516025
vt 0.166521 0.168102
vt 0.510594 0.166065
vt 0.152548 0.515788
vt 0.154914 0.179977
vt 0.510642 0.529514
vt 0.165881 0.529394
vn -1.0000 -0.0003 -0.0006
vn 1.0000 0.0002 0.0004
vn 1.0000 0.0003 0.0004
vn 1.0000 0.0003 0.0002
vn 1.0000 0.0001 0.0002
vn -0.5784 -0.5781 0.5754
vn -0.5785 0.5773 0.5763
vn -0.5774 0.5760 -0.5786
vn -0.5750 -0.5779 -0.5791
vn 0.9499 -0.2203 0.2214
vn 0.9991 -0.0395 -0.0121
vn 0.9991 -0.0388 0.0120
vn 0.9500 -0.2197 -0.2218
vn 0.9499 0.2187 -0.2233
vn 0.9992 0.0389 0.0107
vn 0.9992 0.0377 -0.0135
vn 0.9502 0.2199 0.2206
vn 0.0000 0.7071 0.7071
vn 0.0000 -0.7084 0.7058
vn 0.0000 -0.7062 -0.7080
vn 0.0000 0.7067 -0.7075
vn 0.9409 0.1662 0.2948
vn 0.9412 -0.1663 0.2939
vn 0.7054 0.4612 0.5383
vn 0.7057 -0.4617 0.5373
vn 0.2603 0.6969 0.6682
vn 0.2604 -0.6979 0.6671
vn 0.9405 -0.1668 -0.2958
vn 0.7046 -0.4612 -0.5392
vn 0.2600 -0.6962 -0.6690
vn 0.9410 0.1658 -0.2949
vn 0.7055 0.4608 -0.5384
vn 0.2604 0.6965 -0.6686
vn -1.0000 0.0000 0.0000
usemtl Material.004
s off
f 168/129/39 169/130/39 170/131/39 171/132/39 172/133/39 173/134/39 174/135/39 175/136/39 176/137/39 177/138/39 178/139/39 179/140/39 180/141/39 149/142/39 150/143/39 151/144/39 152/145/39 153/146/39 154/147/39 155/148/39 156/149/39 157/150/39 158/151/39 159/152/39 160/153/39 161/154/39 162/155/39 163/156/39 164/157/39 165/158/39 166/159/39 167/160/39
s 1
f 90/161/40 91/162/41 92/163/42 89/164/43
f 94/165/44 93/166/45 96/167/46 95/168/47
f 148/169/48 109/170/49 98/171/50 145/172/51
f 146/173/52 101/174/53 105/175/54 147/176/55
f 147/177/55 105/178/54 109/179/49 148/180/48
f 181/181/56 93/166/45 94/165/44 182/182/57
f 182/183/57 94/165/44 95/168/47 184/184/58
f 184/185/58 95/168/47 96/167/46 183/186/59
f 183/187/59 96/167/46 93/166/45 181/188/56
f 98/189/50 100/190/60 103/191/61 101/192/53
f 100/190/60 99/193/62 104/194/63 103/191/61
f 99/193/62 97/195/64 102/196/65 104/194/63
f 101/174/53 103/197/61 107/198/66 105/175/54
f 103/197/61 104/199/63 108/200/67 107/198/66
f 104/199/63 102/201/65 106/202/68 108/200/67
f 105/178/54 107/203/66 111/204/69 109/179/49
f 107/203/66 108/205/67 112/206/70 111/204/69
f 108/205/67 106/207/68 110/208/71 112/206/70
f 109/170/49 111/209/69 100/210/60 98/171/50
f 111/209/69 112/211/70 99/212/62 100/210/60
f 112/211/70 110/213/71 97/214/64 99/212/62
f 145/215/51 98/189/50 101/192/53 146/216/52
f 114/217/72 113/218/72 144/219/72 143/220/72 142/221/72 141/222/72 140/223/72 139/224/72 138/225/72 137/226/72 136/227/72 135/228/72 134/229/72 133/230/72 132/231/72 131/232/72 130/233/72 129/234/72 128/235/72 127/236/72 126/237/72 125/238/72 124/239/72 123/240/72 122/241/72 121/242/72 120/243/72 119/244/72 118/245/72 117/246/72 116/247/72 115/248/72
f 89/249/43 145/215/51 146/216/52 90/250/40
f 90/251/40 146/173/52 147/176/55 91/252/41
f 91/253/41 147/177/55 148/180/48 92/254/42
f 92/255/42 148/169/48 145/172/51 89/256/43
f 186/257/59 183/187/59 181/188/56 185/258/56
f 188/259/58 184/185/58 183/186/59 186/260/59
f 187/261/57 182/183/57 184/184/58 188/262/58
f 185/263/56 181/181/56 182/182/57 187/264/57
f 97/195/64 185/263/56 187/264/57 102/196/65
f 102/201/65 187/261/57 188/262/58 106/202/68
f 106/207/68 188/259/58 186/260/59 110/208/71
f 110/213/71 186/257/59 185/258/56 97/214/64
